<svg width="646" height="614" viewBox="0 0 646 614" fill="none" xmlns="http://www.w3.org/2000/svg">
<path d="M328.352 599.203C328.172 598.737 328.172 598.737 328.17 598.738L328.16 598.741L328.121 598.756C328.086 598.769 328.034 598.789 327.963 598.815C327.823 598.868 327.613 598.945 327.336 599.046C326.781 599.247 325.956 599.539 324.877 599.904C322.719 600.634 319.547 601.653 315.496 602.808C307.394 605.12 295.78 607.976 281.736 610.155C253.644 614.513 215.853 616.157 177.018 605.32C138.193 594.486 98.3087 571.174 66.0093 525.593C33.7065 480.008 8.96849 412.118 0.500033 312.093C0.501917 229.754 11.6568 138.095 57.2218 75.6406C79.9946 44.4267 111.367 20.5022 154.267 8.67643C197.177 -3.15194 251.654 -2.88516 320.64 14.351C392.064 32.1961 444.766 46.4234 484.41 61.0571C524.052 75.6901 550.594 90.7144 569.728 110.13C588.857 129.54 600.622 153.38 610.636 185.723C618.349 210.633 625.013 240.551 633.207 277.341C635.657 288.338 638.243 299.95 641.035 312.225C653.126 365.385 639.663 409.842 612.652 446.652C585.628 483.479 545.038 512.657 502.893 535.196C460.752 557.733 417.09 573.613 383.959 583.86C367.394 588.983 353.465 592.697 343.678 595.13C338.784 596.346 334.926 597.242 332.292 597.834C330.975 598.13 329.965 598.35 329.283 598.496C328.943 598.569 328.685 598.623 328.512 598.659L328.317 598.7L328.268 598.71L328.256 598.712C328.253 598.713 328.252 598.713 328.352 599.203ZM328.352 599.203L328.172 598.737L328.211 598.722L328.252 598.713L328.352 599.203Z" stroke="white"/>
</svg>
