<svg width="634" height="655" viewBox="0 0 634 655" fill="none" xmlns="http://www.w3.org/2000/svg">
<path d="M631.913 375.642C629.601 385.059 619.175 410.983 602.211 443.486C585.255 475.974 561.788 514.992 533.419 550.595C505.045 586.202 471.791 618.363 435.266 637.174C398.758 655.977 358.996 661.438 317.539 643.684C250.032 614.774 196.459 591.424 154.067 570.1C111.674 548.776 80.4919 529.493 57.7508 508.728C35.0208 487.973 20.7175 465.732 12.0899 438.473C3.45749 411.198 0.5 378.878 0.5 337.953C0.5 295.042 20.2864 245.441 41.0823 204.426C51.4752 183.928 62.1104 165.593 70.6321 151.333C73.1272 147.158 75.4365 143.339 77.5072 139.916C78.9765 137.486 80.3255 135.256 81.5355 133.238C84.4395 128.393 86.54 124.776 87.5192 122.653C91.3413 114.367 108.785 88.5024 140.09 64.7106C171.38 40.9299 216.493 19.2395 275.656 19.2395C307.33 19.2395 336.838 14.3032 364.708 9.50159C365.505 9.3642 366.301 9.22692 367.096 9.08988C394.092 4.43465 419.538 0.0468593 443.999 0.537624C469.162 1.04247 493.266 6.71095 516.896 22.5726C540.532 38.4381 563.73 64.5252 587.035 105.928C592.203 117.081 598.176 137.138 604.086 161.581C609.995 186.024 615.831 214.816 620.728 243.396C625.625 271.975 629.582 300.335 631.732 323.914C632.807 335.704 633.43 346.293 633.494 355.113C633.559 363.943 633.062 370.966 631.913 375.642Z" stroke="white"/>
</svg>
