<svg width="646" height="614" viewBox="0 0 646 614" fill="none" xmlns="http://www.w3.org/2000/svg">
<path d="M540.583 479.431C533.813 486.333 511.892 503.559 481.256 523.458C450.633 543.348 411.343 565.882 369.857 583.408C328.364 600.936 284.714 613.437 245.36 613.301C206.028 613.165 171.004 600.41 146.665 567.428C107.008 513.69 75.7504 470.704 52.4958 434.298C29.2404 397.891 14.0069 368.093 6.38022 340.733C-8.85622 286.074 6.23658 241.046 48.776 172.305C71.0842 136.256 112.898 103.225 151.062 77.8491C170.136 65.1666 188.281 54.4066 202.596 46.1473C206.787 43.7293 210.642 41.5299 214.099 39.5578C216.552 38.1582 218.805 36.8731 220.834 35.7056C225.705 32.9037 229.286 30.7817 231.182 29.4263C238.587 24.1331 266.16 10.0209 303.879 3.69716C341.581 -2.62363 389.383 -1.15725 437.289 24.6471C462.953 38.4707 489.428 47.2014 514.499 55.3284C515.215 55.5606 515.93 55.7923 516.644 56.0235C540.935 63.8936 563.821 71.3086 583.374 82.3902C603.484 93.787 620.053 109.056 630.946 132.68C641.842 156.313 647.074 188.343 644.431 233.289C642.821 244.914 637.233 264.369 629.315 287.478C621.396 310.588 611.158 337.319 600.269 363.461C589.38 389.604 577.844 415.151 567.329 435.896C562.071 446.268 557.072 455.434 552.539 462.872C548.001 470.317 543.946 476.002 540.583 479.431Z" stroke="white"/>
</svg>
